<svg xmlns="http://www.w3.org/2000/svg" xmlns:xlink="http://www.w3.org/1999/xlink" width="18" height="18" viewBox="0 0 18 18">
  <defs>
    <clipPath id="clip-path">
      <rect id="Rectangle_1073" data-name="Rectangle 1073" width="18" height="18" transform="translate(128 26)" fill="#fff" stroke="#757575" stroke-width="1"/>
    </clipPath>
  </defs>
  <g id="Mask_Group_86" data-name="Mask Group 86" transform="translate(-128 -26)" clip-path="url(#clip-path)">
    <g id="users" transform="translate(128 26)">
      <g id="Group_13855" data-name="Group 13855">
        <g id="Group_13854" data-name="Group 13854">
          <path id="Path_340" data-name="Path 340" d="M15.39,6.87A2.694,2.694,0,0,0,13.5,2.25a2.711,2.711,0,0,0-1.4.391.3.3,0,0,0,.31.514,2.1,2.1,0,0,1,3.19,1.8,2.089,2.089,0,0,1-.957,1.759,2.111,2.111,0,0,1-1.724.259.3.3,0,1,0-.165.577,2.708,2.708,0,0,0,.745.1,2.673,2.673,0,0,0,1.333-.361A3.885,3.885,0,0,1,17.4,10.95v1.5H14.664a5.7,5.7,0,0,0-3.312-4.59,3.3,3.3,0,1,0-4.7,0,5.78,5.78,0,0,0-1.68,1.158A5.669,5.669,0,0,0,3.333,12.45H.6v-1.5A3.885,3.885,0,0,1,1.741,8.193a3.942,3.942,0,0,1,1.429-.9A2.675,2.675,0,0,0,4.5,7.65a2.708,2.708,0,0,0,.745-.1.3.3,0,1,0-.165-.577,2.11,2.11,0,0,1-1.726-.26A2.1,2.1,0,0,1,4.5,2.85a2.111,2.111,0,0,1,1.09.3.3.3,0,0,0,.31-.514A2.7,2.7,0,0,0,1.8,4.95a2.682,2.682,0,0,0,.808,1.919,4.57,4.57,0,0,0-1.291.9A4.483,4.483,0,0,0,0,10.95v1.8a.3.3,0,0,0,.3.3h3v2.4a.3.3,0,0,0,.3.3H14.4a.3.3,0,0,0,.3-.3v-2.4h3a.3.3,0,0,0,.3-.3v-1.8A4.483,4.483,0,0,0,15.39,6.87ZM6.3,5.55A2.7,2.7,0,1,1,9,8.25,2.7,2.7,0,0,1,6.3,5.55Zm7.8,9.6H3.9v-2.1A5.077,5.077,0,0,1,5.392,9.444,5.152,5.152,0,0,1,7.173,8.3a3.289,3.289,0,0,0,3.658,0A5.1,5.1,0,0,1,14.1,13.05v2.1Z"/>
        </g>
      </g>
    </g>
  </g>
</svg>
