<svg xmlns="http://www.w3.org/2000/svg" xmlns:xlink="http://www.w3.org/1999/xlink" width="18" height="18" viewBox="0 0 18 18">
  <defs>
    <clipPath id="clip-path">
      <rect id="Rectangle_1074" data-name="Rectangle 1074" width="18" height="18" transform="translate(318 26)" fill="#fff" stroke="#757575" stroke-width="1"/>
    </clipPath>
  </defs>
  <g id="Mask_Group_87" data-name="Mask Group 87" transform="translate(-318 -26)" clip-path="url(#clip-path)">
    <g id="palae" transform="translate(317.486 25.486)">
      <path id="Path_341" data-name="Path 341" d="M9.514,16.457a.257.257,0,0,1-.206-.1C9.1,16.07,4.209,9.4,4.209,5.821a5.307,5.307,0,1,1,10.613,0c0,3.58-4.892,10.25-5.1,10.532a.257.257,0,0,1-.208.1Zm0-15.428A4.8,4.8,0,0,0,4.722,5.821c0,3.009,3.848,8.61,4.792,9.939.944-1.329,4.792-6.931,4.792-9.939A4.8,4.8,0,0,0,9.514,1.029Z"/>
      <path id="Path_342" data-name="Path 342" d="M9.514,18.514c-2.976,0-5.307-1.073-5.307-2.443,0-1.095,1.511-2.035,3.761-2.34a.257.257,0,1,1,.069.51c-1.921.26-3.316,1.03-3.316,1.83C4.721,17,6.647,18,9.514,18s4.793-1,4.793-1.929c0-.8-1.394-1.57-3.317-1.831a.257.257,0,1,1,.069-.51c2.249.3,3.761,1.245,3.761,2.34C14.822,17.441,12.49,18.514,9.514,18.514Z"/>
      <path id="Path_343" data-name="Path 343" d="M9.514,9.514a3.6,3.6,0,1,1,3.6-3.6,3.6,3.6,0,0,1-3.6,3.6Zm0-6.686A3.086,3.086,0,1,0,12.6,5.914,3.086,3.086,0,0,0,9.514,2.829Z"/>
    </g>
  </g>
</svg>
