<svg xmlns="http://www.w3.org/2000/svg" xmlns:xlink="http://www.w3.org/1999/xlink" width="18" height="18" viewBox="0 0 18 18">
  <defs>
    <clipPath id="clip-path">
      <rect id="Rectangle_1071" data-name="Rectangle 1071" width="18" height="18" transform="translate(953 49)" fill="#fff" stroke="#757575" stroke-width="1"/>
    </clipPath>
  </defs>
  <g id="Mask_Group_84" data-name="Mask Group 84" transform="translate(-953 -49)" clip-path="url(#clip-path)">
    <g id="calendar" transform="translate(952.784 48.784)">
      <g id="_x31_158_x2C__Calendar_x2C__Date_x2C__Event_x2C__Holiday">
        <g id="Group_13848" data-name="Group 13848">
          <path id="Path_310" data-name="Path 310" d="M5.256,7.416h.36a.36.36,0,0,0,0-.72h-.36a.36.36,0,0,0,0,.72Z"/>
          <path id="Path_311" data-name="Path 311" d="M7.776,7.416h.36a.36.36,0,0,0,0-.72h-.36a.36.36,0,0,0,0,.72Z"/>
          <path id="Path_312" data-name="Path 312" d="M10.3,7.416h.36a.36.36,0,1,0,0-.72H10.3a.36.36,0,0,0,0,.72Z"/>
          <path id="Path_313" data-name="Path 313" d="M12.816,7.416h.36a.36.36,0,0,0,0-.72h-.36a.36.36,0,0,0,0,.72Z"/>
          <path id="Path_314" data-name="Path 314" d="M15.336,7.416h.36a.36.36,0,1,0,0-.72h-.36a.36.36,0,0,0,0,.72Z"/>
          <path id="Path_315" data-name="Path 315" d="M2.736,9.576H3.1a.36.36,0,1,0,0-.72h-.36a.36.36,0,1,0,0,.72Z"/>
          <path id="Path_316" data-name="Path 316" d="M5.256,9.576h.36a.36.36,0,1,0,0-.72h-.36a.36.36,0,0,0,0,.72Z"/>
          <path id="Path_317" data-name="Path 317" d="M7.776,9.576h.36a.36.36,0,0,0,0-.72h-.36a.36.36,0,0,0,0,.72Z"/>
          <path id="Path_318" data-name="Path 318" d="M10.3,9.576h.36a.36.36,0,1,0,0-.72H10.3a.36.36,0,0,0,0,.72Z"/>
          <path id="Path_319" data-name="Path 319" d="M12.816,9.576h.36a.36.36,0,1,0,0-.72h-.36a.36.36,0,0,0,0,.72Z"/>
          <path id="Path_320" data-name="Path 320" d="M15.336,9.576h.36a.36.36,0,1,0,0-.72h-.36a.36.36,0,1,0,0,.72Z"/>
          <path id="Path_321" data-name="Path 321" d="M2.736,11.736H3.1a.36.36,0,1,0,0-.72h-.36a.36.36,0,1,0,0,.72Z"/>
          <path id="Path_322" data-name="Path 322" d="M5.256,11.736h.36a.36.36,0,1,0,0-.72h-.36a.36.36,0,0,0,0,.72Z"/>
          <path id="Path_323" data-name="Path 323" d="M7.776,11.736h.36a.36.36,0,1,0,0-.72h-.36a.36.36,0,0,0,0,.72Z"/>
          <path id="Path_324" data-name="Path 324" d="M10.3,11.736h.36a.36.36,0,1,0,0-.72H10.3a.36.36,0,1,0,0,.72Z"/>
          <path id="Path_325" data-name="Path 325" d="M12.816,11.736h.36a.36.36,0,0,0,0-.72h-.36a.36.36,0,1,0,0,.72Z"/>
          <path id="Path_326" data-name="Path 326" d="M15.336,11.736h.36a.36.36,0,1,0,0-.72h-.36a.36.36,0,1,0,0,.72Z"/>
          <path id="Path_327" data-name="Path 327" d="M2.736,13.9H3.1a.36.36,0,1,0,0-.72h-.36a.36.36,0,1,0,0,.72Z"/>
          <path id="Path_328" data-name="Path 328" d="M5.256,13.9h.36a.36.36,0,1,0,0-.72h-.36a.36.36,0,0,0,0,.72Z"/>
          <path id="Path_329" data-name="Path 329" d="M7.776,13.9h.36a.36.36,0,0,0,0-.72h-.36a.36.36,0,0,0,0,.72Z"/>
          <path id="Path_330" data-name="Path 330" d="M10.3,13.9h.36a.36.36,0,1,0,0-.72H10.3a.36.36,0,1,0,0,.72Z"/>
          <path id="Path_331" data-name="Path 331" d="M12.816,13.9h.36a.36.36,0,0,0,0-.72h-.36a.36.36,0,0,0,0,.72Z"/>
          <path id="Path_332" data-name="Path 332" d="M15.336,13.9h.36a.36.36,0,1,0,0-.72h-.36a.36.36,0,1,0,0,.72Z"/>
          <path id="Path_333" data-name="Path 333" d="M2.736,16.056H3.1a.36.36,0,0,0,0-.72h-.36a.36.36,0,0,0,0,.72Z"/>
          <path id="Path_334" data-name="Path 334" d="M5.256,16.056h.36a.36.36,0,1,0,0-.72h-.36a.36.36,0,0,0,0,.72Z"/>
          <path id="Path_335" data-name="Path 335" d="M7.776,16.056h.36a.36.36,0,0,0,0-.72h-.36a.36.36,0,0,0,0,.72Z"/>
          <path id="Path_336" data-name="Path 336" d="M10.3,16.056h.36a.36.36,0,1,0,0-.72H10.3a.36.36,0,0,0,0,.72Z"/>
          <path id="Path_337" data-name="Path 337" d="M17.856,1.656h-1.8v-.18a1.26,1.26,0,0,0-2.52,0v.18H4.9v-.18a1.26,1.26,0,0,0-2.52,0v.18H.576a.36.36,0,0,0-.36.36v15.84a.36.36,0,0,0,.36.36h17.28a.36.36,0,0,0,.36-.36V2.016A.36.36,0,0,0,17.856,1.656Zm-3.6-.18a.54.54,0,1,1,1.08,0v1.08a.54.54,0,0,1-1.08,0V1.476Zm-11.16,0a.54.54,0,1,1,1.08,0v1.08a.54.54,0,1,1-1.08,0V1.476Zm-2.16.9h1.44v.18a1.26,1.26,0,0,0,2.52,0v-.18h8.64v.18a1.26,1.26,0,1,0,2.52,0v-.18H17.5v2.16H.936ZM17.5,17.5H.936V5.256H17.5Z"/>
        </g>
      </g>
    </g>
  </g>
</svg>
