<svg xmlns="http://www.w3.org/2000/svg" xmlns:xlink="http://www.w3.org/1999/xlink" width="160" height="160" viewBox="0 0 160 160">
  <defs>
    <clipPath id="clip-path">
      <circle id="Ellipse_93" data-name="Ellipse 93" cx="80" cy="80" r="80" transform="translate(508 10034)" fill="#fff" stroke="#757575" stroke-width="1"/>
    </clipPath>
    <linearGradient id="linear-gradient" x1="-1.119" y1="-5.796" x2="1.606" y2="4.75" gradientUnits="objectBoundingBox">
      <stop offset="0.005" stop-color="#fff"/>
      <stop offset="0.263" stop-color="#e6d0a1"/>
      <stop offset="0.379" stop-color="#e5ce9e"/>
      <stop offset="0.478" stop-color="#e2c793"/>
      <stop offset="0.571" stop-color="#dcbb81"/>
      <stop offset="0.626" stop-color="#d8b273"/>
      <stop offset="0.688" stop-color="#c7a469"/>
      <stop offset="0.809" stop-color="#9c8050"/>
      <stop offset="0.977" stop-color="#574527"/>
      <stop offset="1" stop-color="#4d3d21"/>
    </linearGradient>
    <linearGradient id="linear-gradient-2" x1="-0.451" y1="-4.785" x2="1.451" y2="5.761" xlink:href="#linear-gradient"/>
    <linearGradient id="linear-gradient-3" x1="-2.42" y1="-6.069" x2="2.262" y2="4.477" xlink:href="#linear-gradient"/>
    <linearGradient id="linear-gradient-4" x1="-6.567" y1="-4.576" x2="8.103" y2="5.969" xlink:href="#linear-gradient"/>
    <linearGradient id="linear-gradient-5" x1="-0.818" y1="-4.61" x2="1.908" y2="5.936" xlink:href="#linear-gradient"/>
    <linearGradient id="linear-gradient-6" x1="-3.464" y1="-2.369" x2="11.205" y2="8.176" xlink:href="#linear-gradient"/>
    <linearGradient id="linear-gradient-7" x1="-1.883" y1="-4.709" x2="2.95" y2="5.837" xlink:href="#linear-gradient"/>
    <linearGradient id="linear-gradient-8" x1="-9.035" y1="-6.357" x2="5.634" y2="4.189" xlink:href="#linear-gradient"/>
  </defs>
  <g id="Mask_Group_89" data-name="Mask Group 89" transform="translate(-508 -10034)" clip-path="url(#clip-path)">
    <g id="icon-circle-giaotrong3h" transform="translate(508 10034)">
      <g id="Layer_2_1_">
        <g id="Layer_1-2">
          <circle id="Ellipse_96" data-name="Ellipse 96" cx="80" cy="80" r="80" transform="translate(0 0)" fill="#fff"/>
        </g>
      </g>
      <g id="Group_13914" data-name="Group 13914">
        <g id="Group_13910" data-name="Group 13910">
          <g id="Group_13907" data-name="Group 13907">
            <path id="Path_345" data-name="Path 345" d="M79.3,61.845a8.7,8.7,0,0,0-9.253,7.848v.469c0,3.631,1.991,6.676,7.731,6.676a15.461,15.461,0,0,0,4.568-.7,27.606,27.606,0,0,1,1.406-5.974H80.586A28.811,28.811,0,0,1,79.3,75.432a9.1,9.1,0,0,1-1.874.234c-3.163,0-4.217-1.991-4.217-4.685,0-3.163,1.64-7.848,6.442-7.848a4.908,4.908,0,0,1,4.217,1.991H84.1a9.338,9.338,0,0,1,.937-1.874A15.9,15.9,0,0,0,79.3,61.845Z" fill="#003468"/>
            <path id="Path_346" data-name="Path 346" d="M89.722,61.025a1.578,1.578,0,0,0-1.64,1.523,1.658,1.658,0,0,0,1.523,1.64,1.578,1.578,0,0,0,1.64-1.523,1.658,1.658,0,0,0-1.523-1.64Zm-.7,5.622H87.5A96.364,96.364,0,0,1,85.271,76.72h3.163a73.571,73.571,0,0,1,2.225-10.073A3.86,3.86,0,0,1,89.019,66.647Z" fill="#003468"/>
            <path id="Path_347" data-name="Path 347" d="M99.912,76.135c-.469,0-.586-.469-.586-.82a7.909,7.909,0,0,1,.234-1.64l.586-2.577a10.252,10.252,0,0,0,.234-1.874c0-1.991-1.64-2.577-3.28-2.577a8.452,8.452,0,0,0-3.748.937,3.985,3.985,0,0,1-.117,1.171h0a3.7,3.7,0,0,1,2.225-.82,1.648,1.648,0,0,1,1.874,1.64c0,1.288-.351,1.171-1.64,1.288a19.863,19.863,0,0,0-2.577.469,3.275,3.275,0,0,0-2.225,3.045,2.706,2.706,0,0,0,2.46,2.811h.234a2.992,2.992,0,0,0,3.045-1.64,1.927,1.927,0,0,0,1.991,1.64,3.485,3.485,0,0,0,1.757-.586l-.234-.469C100.146,76.018,100.029,76.135,99.912,76.135Zm-2.928-3.045c-.234,1.054-.586,2.577-1.874,2.577-.82,0-1.054-.7-1.054-1.406a2.453,2.453,0,0,1,.937-2.225,5.332,5.332,0,0,1,2.343-.586Z" fill="#003468"/>
            <path id="Path_348" data-name="Path 348" d="M107.877,66.53a6.225,6.225,0,0,0-6.208,6.091h0a4.3,4.3,0,0,0,4.1,4.451h.351a6.329,6.329,0,0,0,6.325-6.091,4.115,4.115,0,0,0-3.865-4.451Zm-1.64,9.839c-1.406,0-1.64-1.406-1.64-2.577,0-1.757.82-6.325,3.28-6.325,1.406,0,1.64,1.406,1.64,2.577.117,1.64-.7,6.325-3.28,6.325Z" fill="#003468"/>
          </g>
          <g id="Group_13908" data-name="Group 13908">
            <path id="Path_349" data-name="Path 349" d="M63.016,80.586c-1.874,0-3.514,0-5.154-.117a6.757,6.757,0,0,1-.351,1.64,22.61,22.61,0,0,1,3.982,0c-.351,1.874-.7,3.631-1.054,5.388-.586,2.46-1.288,5.037-1.991,7.5h1.64l1.757.117c.351-2.46.937-4.8,1.523-7.262s1.054-4.1,1.523-5.622a30.943,30.943,0,0,1,3.4.234,3.741,3.741,0,0,1,.351-1.64C67.233,80.7,64.539,80.7,63.016,80.586Z" fill="#003468"/>
            <path id="Path_350" data-name="Path 350" d="M74.963,84.8c-1.757,0-2.811,1.874-3.163,2.577l.7-2.343H69.81A96.365,96.365,0,0,1,67.584,95.11h1.523a5.725,5.725,0,0,1,1.523.117c.586-2.928.82-4.451,1.054-5.388s.7-2.343,2.46-2.225a1.635,1.635,0,0,1,1.054.351h.234a7.06,7.06,0,0,1,.7-2.694A2.081,2.081,0,0,0,74.963,84.8Z" fill="#003468"/>
            <path id="Path_351" data-name="Path 351" d="M81.991,84.8a6.2,6.2,0,0,0-6.208,5.974v.117a4.3,4.3,0,0,0,4.1,4.451h.351a6.15,6.15,0,0,0,6.325-5.974,4.041,4.041,0,0,0-3.865-4.451A1.486,1.486,0,0,0,81.991,84.8Zm-1.64,9.839c-1.406,0-1.64-1.406-1.64-2.577,0-1.757.82-6.325,3.28-6.325,1.406,0,1.64,1.406,1.64,2.577C83.631,89.956,82.811,94.641,80.351,94.641Z" fill="#003468"/>
            <path id="Path_352" data-name="Path 352" d="M95.578,85.037a4.723,4.723,0,0,0-3.865,1.991c.234-.82.234-1.054.469-1.757H89.253c-.82,4.568-1.64,7.379-2.343,10.073h3.045a57.1,57.1,0,0,1,1.406-6.091c.586-1.874,1.757-2.694,2.694-2.694a.991.991,0,0,1,1.171.937v.234a54.315,54.315,0,0,1-1.991,7.5h1.523a6.679,6.679,0,0,1,1.523.117,27.74,27.74,0,0,1,1.054-4.568,18.675,18.675,0,0,0,.7-3.514C98.155,85.974,97.335,85.037,95.578,85.037Z" fill="#003468"/>
            <path id="Path_353" data-name="Path 353" d="M110.337,85.388l-2.577.117a4.981,4.981,0,0,1-1.288-.234,7.909,7.909,0,0,0-1.64-.234c-3.163,0-4.685,1.757-4.685,3.631a2.779,2.779,0,0,0,1.874,2.694v.117c-1.054.234-2.225.937-2.225,2.225a1.512,1.512,0,0,0,1.054,1.523h0c-1.406.351-2.811,1.171-2.811,2.694,0,2.225,2.694,2.928,4.451,2.928a5.072,5.072,0,0,0,5.622-4.217v-.117a2.625,2.625,0,0,0-1.406-2.225,7.737,7.737,0,0,0-2.811-.351c-1.288,0-1.991-.117-1.991-.937a.957.957,0,0,1,1.054-.937h1.054a5.86,5.86,0,0,0,3.4-.82,3.282,3.282,0,0,0,.82-4.8h1.757C110.1,85.974,110.1,85.622,110.337,85.388Zm-8.2,10.307c2.928,0,3.748.469,3.748,1.757s-1.054,2.46-3.163,2.46c-1.523,0-2.694-.586-2.694-2.225a1.932,1.932,0,0,1,1.054-1.757A2.339,2.339,0,0,1,102.138,95.7Zm1.991-4.685c-.937,0-1.288-.7-1.171-1.523s.469-3.631,2.108-3.631c1.054,0,1.288.937,1.288,1.523C106.237,88.551,105.652,91.01,104.129,91.01Z" fill="#003468"/>
          </g>
          <path id="Path_354" data-name="Path 354" d="M149.927,79.883a6.727,6.727,0,0,0-5.388,2.694,85.789,85.789,0,0,1,2.811-10.893c-.7,0-1.406.117-2.343.117a10.78,10.78,0,0,1-2.225-.234c-.7,3.631-3.163,15.344-5.271,23.426a16.5,16.5,0,0,1,2.343-.117,16.006,16.006,0,0,1,2.225.234,75.1,75.1,0,0,1,1.991-8.9c.586-1.757,1.757-4.1,3.982-3.982a1.572,1.572,0,0,1,1.757,1.64,18.665,18.665,0,0,1-.937,4.1c-.82,3.163-1.171,4.451-2.108,7.145a21.961,21.961,0,0,1,2.46-.117,12.973,12.973,0,0,1,2.225.234,43.625,43.625,0,0,1,1.171-5.739,51.024,51.024,0,0,0,1.288-6.091C153.792,81.171,152.387,79.883,149.927,79.883Z" fill="#003468"/>
          <g id="Group_13909" data-name="Group 13909">
            <path id="Path_355" data-name="Path 355" d="M116.076,86.091c.351,3.28,1.757,6.442,5.505,6.442,4.217,0,5.622-5.271,5.622-8.785s-1.288-5.154-4.919-5.154a4.006,4.006,0,0,0-1.288.117,11.808,11.808,0,0,0,.586-2.928c2.694.117,8.2.234,8.2-7.262,0-2.46-.7-4.8-3.631-4.8-3.4,0-4.568,3.163-4.8,6.091l-.7.469a21.066,21.066,0,0,0-3.865-4.568c1.757-1.874,4.1-4.685,10.307-4.685,5.037,0,10.425,2.225,10.425,7.965,0,6.794-7.028,7.965-8.9,8.2v.234c1.406.351,6.794,1.523,6.794,7.731,0,5.154-3.982,10.073-12.65,10.073-6.794,0-9.253-2.577-11.01-4.334a25.57,25.57,0,0,0,3.748-5.037Z" fill="#003468"/>
          </g>
        </g>
        <path id="Path_356" data-name="Path 356" d="M53.294,79.649H24.012a1.406,1.406,0,1,1,0-2.811h29.4a1.424,1.424,0,0,1,1.406,1.64A1.444,1.444,0,0,1,53.294,79.649Z" fill="url(#linear-gradient)"/>
        <path id="Path_357" data-name="Path 357" d="M59.619,64.773H16.281a1.406,1.406,0,1,1,0-2.811H59.619a1.424,1.424,0,0,1,1.406,1.64A1.4,1.4,0,0,1,59.619,64.773Z" fill="url(#linear-gradient-2)"/>
        <g id="Group_13911" data-name="Group 13911">
          <path id="Path_358" data-name="Path 358" d="M62.548,72.152h-15.7a1.406,1.406,0,0,1,0-2.811h15.93a1.424,1.424,0,0,1,1.406,1.64A1.561,1.561,0,0,1,62.548,72.152Z" fill="url(#linear-gradient-3)"/>
          <path id="Path_359" data-name="Path 359" d="M42.4,72.152H39.356a1.406,1.406,0,1,1,0-2.811h3.163a1.424,1.424,0,0,1,1.406,1.64A1.517,1.517,0,0,1,42.4,72.152Z" fill="url(#linear-gradient-4)"/>
        </g>
        <g id="Group_13912" data-name="Group 13912">
          <path id="Path_360" data-name="Path 360" d="M44.861,87.028H15.578a1.406,1.406,0,1,1,0-2.811h29.4a1.424,1.424,0,0,1,1.406,1.64A1.65,1.65,0,0,1,44.861,87.028Z" fill="url(#linear-gradient-5)"/>
          <path id="Path_361" data-name="Path 361" d="M10.893,87.028H7.848a1.406,1.406,0,1,1,0-2.811H11.01a1.424,1.424,0,0,1,1.406,1.64A1.539,1.539,0,0,1,10.893,87.028Z" fill="url(#linear-gradient-6)"/>
        </g>
        <g id="Group_13913" data-name="Group 13913">
          <path id="Path_362" data-name="Path 362" d="M45.915,94.407H30.688a1.406,1.406,0,1,1,0-2.811H46.032a1.424,1.424,0,0,1,1.406,1.64A1.444,1.444,0,0,1,45.915,94.407Z" fill="url(#linear-gradient-7)"/>
          <path id="Path_363" data-name="Path 363" d="M55.168,94.407H52.123a1.406,1.406,0,1,1,0-2.811h3.163a1.424,1.424,0,0,1,1.406,1.64A1.65,1.65,0,0,1,55.168,94.407Z" fill="url(#linear-gradient-8)"/>
        </g>
      </g>
    </g>
  </g>
</svg>
