<svg xmlns="http://www.w3.org/2000/svg" xmlns:xlink="http://www.w3.org/1999/xlink" width="18" height="18" viewBox="0 0 18 18">
  <defs>
    <clipPath id="clip-path">
      <rect id="Rectangle_1072" data-name="Rectangle 1072" width="18" height="18" transform="translate(1113 49)" fill="#fff" stroke="#757575" stroke-width="1"/>
    </clipPath>
  </defs>
  <g id="Mask_Group_85" data-name="Mask Group 85" transform="translate(-1113 -49)" clip-path="url(#clip-path)">
    <g id="time" transform="translate(1113 49)">
      <g id="Group_13849" data-name="Group 13849">
        <path id="Path_338" data-name="Path 338" d="M9,18a9,9,0,1,1,9-9A9.01,9.01,0,0,1,9,18ZM9,.75A8.25,8.25,0,1,0,17.25,9,8.26,8.26,0,0,0,9,.75Z"/>
      </g>
      <g id="Group_13850" data-name="Group 13850">
        <path id="Path_339" data-name="Path 339" d="M13.125,13.5a.377.377,0,0,1-.266-.109L8.734,9.266A.378.378,0,0,1,8.625,9V3.375a.375.375,0,0,1,.75,0v5.47l4.016,4.015a.375.375,0,0,1-.266.64Z"/>
      </g>
    </g>
  </g>
</svg>
