<svg xmlns="http://www.w3.org/2000/svg" xmlns:xlink="http://www.w3.org/1999/xlink" width="160" height="160" viewBox="0 0 160 160">
  <defs>
    <clipPath id="clip-path">
      <circle id="Ellipse_92" data-name="Ellipse 92" cx="80" cy="80" r="80" transform="translate(318 10034)" fill="#fff" stroke="#757575" stroke-width="1"/>
    </clipPath>
  </defs>
  <g id="Mask_Group_90" data-name="Mask Group 90" transform="translate(-318 -10034)" clip-path="url(#clip-path)">
    <g id="Layer_2" data-name="Layer 2" transform="translate(318 10034)">
      <g id="Layer_1" data-name="Layer 1">
        <circle id="Ellipse_97" data-name="Ellipse 97" cx="80" cy="80" r="80" transform="translate(0 0)" fill="#fff"/>
        <path id="Path_364" data-name="Path 364" d="M35.535,106.8l-7.116-4.576a3.511,3.511,0,0,1-1.241-2.657V84.541a18.037,18.037,0,0,1,5.1-12.7c3.184-3.207,8.193-6.086,15.965-6.086,14.373,0,19.722,13.367,19.722,15.38s0,18.353,12.36,18.353S92.465,88.954,92.711,86.613c.421-3.324-3.359-10.827-11.037-10.827s-10.7,3.675-10.7,3.675c-2.68-6.016-8.029-11.7-11.365-13.378V52.67c1.955,0,7.737,5.712,8.931,8.767V68.9s5.056-3.968,13.624-3.125c7.6.737,12.641,4.483,15.567,9.82s10.534,19.535,10.534,19.535l12.02-25.843a9,9,0,0,1,8.193-5.185h4.366l-20.284,42.768h-8.556L98.317,96.328a19.254,19.254,0,0,1-17.873,10.967h-1.17c-10.792-.632-19.043-9.925-19.043-20.682h0a12.219,12.219,0,0,0-4.2-9.364,11.33,11.33,0,0,0-7.4-2.879H47.614A13.039,13.039,0,0,0,35.6,87.257C35.488,94.806,35.312,107.026,35.535,106.8Z" fill="#1c3766"/>
      </g>
    </g>
  </g>
</svg>
