<svg xmlns="http://www.w3.org/2000/svg" xmlns:xlink="http://www.w3.org/1999/xlink" width="18" height="18" viewBox="0 0 18 18">
  <defs>
    <clipPath id="clip-path">
      <rect id="Rectangle_1075" data-name="Rectangle 1075" width="18" height="18" transform="translate(446 26)" fill="#fff" stroke="#757575" stroke-width="1"/>
    </clipPath>
  </defs>
  <g id="Mask_Group_88" data-name="Mask Group 88" transform="translate(-446 -26)" clip-path="url(#clip-path)">
    <g id="hotline" transform="translate(444.715 24.714)">
      <g id="_06" data-name="06">
        <path id="Path_344" data-name="Path 344" d="M17.357,8.627v-.27a7.071,7.071,0,1,0-14.143,0v.27a3.214,3.214,0,0,0,.643,6.094A5.143,5.143,0,0,0,9,19.286h1.286V17.357H9V18a3.857,3.857,0,0,1-3.857-3.857V8.357H4.5a5.786,5.786,0,0,1,11.571,0h-.643v6.429h.643a3.214,3.214,0,0,0,1.286-6.159ZM2.571,11.571A1.929,1.929,0,0,1,3.857,9.752v3.639a1.929,1.929,0,0,1-1.286-1.819Zm14.143,1.819V9.752a1.929,1.929,0,0,1,0,3.639Z"/>
      </g>
    </g>
  </g>
</svg>
