<svg xmlns="http://www.w3.org/2000/svg" xmlns:xlink="http://www.w3.org/1999/xlink" width="160" height="160" viewBox="0 0 160 160">
  <defs>
    <clipPath id="clip-path">
      <circle id="Ellipse_94" data-name="Ellipse 94" cx="80" cy="80" r="80" transform="translate(698 10034)" fill="#fff" stroke="#757575" stroke-width="1"/>
    </clipPath>
  </defs>
  <g id="Mask_Group_91" data-name="Mask Group 91" transform="translate(-698 -10034)" clip-path="url(#clip-path)">
    <g id="Layer_2" data-name="Layer 2" transform="translate(698 10034)">
      <g id="Layer_1" data-name="Layer 1">
        <circle id="Ellipse_98" data-name="Ellipse 98" cx="80" cy="80" r="80" transform="translate(0 0)" fill="#fff"/>
        <path id="Path_365" data-name="Path 365" d="M40.158,61.9H33.943V78.818H32.375V61.9H26.148v-1.3H40.193Z" fill="#1c3766"/>
        <path id="Path_366" data-name="Path 366" d="M48.187,71.222H42.9v7.6H41.352V60.606h5.911a6.765,6.765,0,0,1,4.553,1.428,4.928,4.928,0,0,1,1.639,3.956,5,5,0,0,1-1.018,3.067,5.337,5.337,0,0,1-2.762,1.849l4.565,7.748v.164H52.6Zm-5.29-1.3h4.682a4.342,4.342,0,0,0,3.113-1.1,4.155,4.155,0,0,0,0-5.852A5.068,5.068,0,0,0,47.251,61.9H42.9Z" fill="#1c3766"/>
        <path id="Path_367" data-name="Path 367" d="M65.767,73.738H57.492L55.62,78.853H54l6.859-18.247h1.463L69.22,78.818H67.652Zm-7.8-1.3h7.3l-3.652-9.925Zm3.148-13.331V57.516a5.009,5.009,0,0,0,1.592-.328.854.854,0,0,0,.5-.843.983.983,0,0,0-.679-.878,4.682,4.682,0,0,0-1.838-.3l.094-.983a5.185,5.185,0,0,1,2.692.6,1.767,1.767,0,0,1,.983,1.568,1.709,1.709,0,0,1-.574,1.346,2.645,2.645,0,0,1-1.627.609v.772Z" fill="#1c3766"/>
        <path id="Path_368" data-name="Path 368" d="M39.8,103.643a5.091,5.091,0,0,1-2.5,1.779,10.675,10.675,0,0,1-3.827.644,7.151,7.151,0,0,1-3.8-1.03,6.847,6.847,0,0,1-2.575-2.9,9.879,9.879,0,0,1-.925-4.307V95.485a8.755,8.755,0,0,1,1.931-5.946,6.473,6.473,0,0,1,5.138-2.2,6.824,6.824,0,0,1,4.53,1.44A5.922,5.922,0,0,1,39.8,92.723H38.238A4.764,4.764,0,0,0,36.6,89.68a5.255,5.255,0,0,0-3.383-1.03,4.916,4.916,0,0,0-4.038,1.814,7.842,7.842,0,0,0-1.5,5.115v2.154a9.024,9.024,0,0,0,.714,3.675,5.618,5.618,0,0,0,2.037,2.481,5.361,5.361,0,0,0,3.031.878,8.368,8.368,0,0,0,3.406-.6,3.687,3.687,0,0,0,1.381-.96V98.528H33.358V97.147H39.8Z" fill="#1c3766"/>
        <path id="Path_369" data-name="Path 369" d="M55.9,97.7a10.417,10.417,0,0,1-.89,4.413,6.578,6.578,0,0,1-2.481,2.926,6.835,6.835,0,0,1-3.722,1.03,6.484,6.484,0,0,1-5.162-2.341,9.141,9.141,0,0,1-1.966-6.168V95.743a10.534,10.534,0,0,1,.9-4.448,6.671,6.671,0,0,1,2.493-2.95A6.742,6.742,0,0,1,48.8,87.3a6.824,6.824,0,0,1,3.71,1.018,6.7,6.7,0,0,1,2.5,2.9,10.265,10.265,0,0,1,.913,4.3Zm-1.545-1.978a8.041,8.041,0,0,0-1.486-5.162,5.349,5.349,0,0,0-8.123,0,8.088,8.088,0,0,0-1.51,5.22v1.908a8.076,8.076,0,0,0,1.5,5.127,4.939,4.939,0,0,0,4.085,1.9,4.857,4.857,0,0,0,4.073-1.873,8.193,8.193,0,0,0,1.463-5.208ZM50.329,82.5h1.814l-2.891,3.511H47.895Z" fill="#1c3766"/>
        <path id="Path_370" data-name="Path 370" d="M59.6,98.388v7.421H58.054V87.6h6.215a6.531,6.531,0,0,1,4.483,1.451,5.712,5.712,0,0,1,0,7.947,6.683,6.683,0,0,1-4.588,1.393Zm0-1.3h4.682a4.928,4.928,0,0,0,3.406-1.112A3.827,3.827,0,0,0,68.857,93,3.968,3.968,0,0,0,67.687,90a4.682,4.682,0,0,0-3.312-1.042H59.6Z" fill="#1c3766"/>
        <path id="Path_371" data-name="Path 371" d="M95.906,51.371c12.243,0,19.582,9.293,19.582,27.353,0,19.347-6.5,30.748-20.178,30.748C81.264,109.472,75.131,97.9,75.131,80,75.131,61.846,82.645,51.371,95.906,51.371Zm-.515,3.511c-5.056,0-7.339,5.15-7.339,24.4,0,18.657.761,26.429,7.175,26.429,4.986,0,7.35-4.389,7.35-25.586,0-20.647-2.2-25.293-7.187-25.293Z" fill="#1c3766"/>
        <path id="Path_372" data-name="Path 372" d="M121.726,51.266a5.443,5.443,0,0,1,5.852,5.56,5.723,5.723,0,0,1-5.852,5.934c-3.511,0-5.852-2.142-5.852-5.7a5.852,5.852,0,0,1,5.852-5.794Zm.105,1.1c-1.8,0-2.516,1.767-2.516,5.08,0,2.587.55,4.2,2.411,4.2,1.17,0,2.341-.854,2.341-4.857.07-2.8-.585-4.424-2.2-4.424Zm12.875-1.826a6.2,6.2,0,0,0,1.861,0l-11.95,25.188a8.193,8.193,0,0,0-.925-.07,8.4,8.4,0,0,0-.936.07ZM137.6,63.508a5.443,5.443,0,0,1,5.852,5.56A5.723,5.723,0,0,1,137.6,75a5.431,5.431,0,0,1-5.852-5.7,5.852,5.852,0,0,1,5.911-5.794Zm.105,1.17c-1.791,0-2.516,1.756-2.516,5.068,0,2.587.55,4.2,2.411,4.2,1.17,0,2.341-.854,2.341-4.857.105-2.856-.55-4.471-2.177-4.471Z" fill="#1c3766"/>
      </g>
    </g>
  </g>
</svg>
