<svg xmlns="http://www.w3.org/2000/svg" xmlns:xlink="http://www.w3.org/1999/xlink" width="160" height="160" viewBox="0 0 160 160">
  <defs>
    <clipPath id="clip-path">
      <circle id="Ellipse_95" data-name="Ellipse 95" cx="80" cy="80" r="80" transform="translate(888 10034)" fill="#fff" stroke="#757575" stroke-width="1"/>
    </clipPath>
  </defs>
  <g id="Mask_Group_92" data-name="Mask Group 92" transform="translate(-888 -10034)" clip-path="url(#clip-path)">
    <g id="Layer_2" data-name="Layer 2" transform="translate(888 10034)">
      <g id="Layer_1" data-name="Layer 1">
        <circle id="Ellipse_99" data-name="Ellipse 99" cx="80" cy="80" r="80" transform="translate(0 0)" fill="#fff"/>
        <path id="Path_373" data-name="Path 373" d="M122.721,42.862a5.255,5.255,0,0,0-5.244-5.244H42.569a5.279,5.279,0,0,0-5.29,5.244V90.23a5.3,5.3,0,0,0,5.29,5.29h7.2a2.013,2.013,0,1,0,0-4.015H42.581a1.3,1.3,0,0,1-1.276-1.276V42.862a1.252,1.252,0,0,1,1.276-1.17h74.909a1.17,1.17,0,0,1,1.17,1.17V90.23a1.252,1.252,0,0,1-1.17,1.276h-7.339a2.013,2.013,0,1,0,0,4.015h7.327a5.279,5.279,0,0,0,5.244-5.29V42.862Z" fill="#1c3766"/>
        <path id="Path_374" data-name="Path 374" d="M50.669,49.252H88.451a1.779,1.779,0,0,0,0-3.511H50.669a1.779,1.779,0,0,0,0,3.511Z" fill="#1c3766"/>
        <path id="Path_375" data-name="Path 375" d="M50.669,58.686H79.59a1.779,1.779,0,0,0,0-3.511H50.669a1.779,1.779,0,0,0,0,3.511Z" fill="#1c3766"/>
        <path id="Path_376" data-name="Path 376" d="M107.412,109.776v-.129a.5.5,0,0,1,0-.059v-.737l-.059-.07v-.07h0v-.07l-.07-.07h0l-.094-.07h0a44.3,44.3,0,0,1-15.8-19.64,20.214,20.214,0,0,0,2.821,1.475,21.419,21.419,0,0,0,8.451,1.744h1.007a9.012,9.012,0,0,0,7.386-4.565,20.506,20.506,0,0,0-.456-20.8h0a8.942,8.942,0,0,0-8.9-4.132A26.815,26.815,0,0,0,87,69.817a5.077,5.077,0,0,0-.562-.164h0a32.035,32.035,0,0,0-12.793-.129,5.466,5.466,0,0,0-.749.211,26.815,26.815,0,0,0-14.631-7.151,8.942,8.942,0,0,0-8.9,4.132,20.506,20.506,0,0,0-.456,20.775h0a9.048,9.048,0,0,0,7.374,4.553h1.03a21.571,21.571,0,0,0,8.4-1.709,15.61,15.61,0,0,0,1.662-.8,51.5,51.5,0,0,1-15.473,17.206h-.2v.07h-.059v.527a.164.164,0,0,1,0,.07v.094h0v.257a.293.293,0,0,0,0,.094v.082a.258.258,0,0,1,0,.094.234.234,0,0,0,0,.082s0,0,0,.082a.748.748,0,0,0,0,.082s0,0,0,.082v.246a.5.5,0,0,0,0,.082v.07l.059.082h0l.105.129h0l.14.129h0l.117.094h0l.117.07h.328a25.118,25.118,0,0,0,5.759.655,26.26,26.26,0,0,0,4.061-.316,42.136,42.136,0,0,1-4.962,9.363h0l-.07.094h0v.059a1.861,1.861,0,0,0-.176.527.082.082,0,0,1,0,.059v.176h0a1.721,1.721,0,0,0,0,.421v.094h0v.117h0a.632.632,0,0,0,0,.129h0l.059.105h0v.082h0l.082.105h0l.117.117h0l.105.082h.129a.176.176,0,0,0,.082,0h0a1.381,1.381,0,0,0,.363.094H58.9A38.8,38.8,0,0,0,78.01,106.909,1.779,1.779,0,0,0,75,105.024a35.113,35.113,0,0,1-11.494,11.307,45.649,45.649,0,0,0,3.207-7.959h0v-.62a.328.328,0,0,0,0-.105.152.152,0,0,0,0-.07s0-.07,0-.105h0a.479.479,0,0,0,0-.094.164.164,0,0,0,0-.07v-.164h0a.409.409,0,0,0,0-.094h0l-.082-.117h0l-.082-.094-.375-.328h0l-.117-.094h0l-.105-.07h-.164a.374.374,0,0,0-.105,0h-.9a22.391,22.391,0,0,1-7.14.878A54.765,54.765,0,0,0,72.931,87.093a50.6,50.6,0,0,0,23.409,35.254h1.416l.129-.082h0l.129-.094h0a.456.456,0,0,0,.117-.094h0l.094-.094h0l.082-.105h0v-.105h0a.187.187,0,0,0,0-.082v-.3a.222.222,0,0,0,0-.094.152.152,0,0,0,0-.07.281.281,0,0,0,0-.094s0,0,0-.094v-.082a.258.258,0,0,0,0-.094s0,0,0-.07v-.105a.152.152,0,0,1,0-.07s0,0,0-.094a.753.753,0,0,1,0-.082.164.164,0,0,0,0-.07v-.094h0c-1.17-3.043-2.177-6.145-3.16-9.364a28.712,28.712,0,0,0,7.783,1.077q1.17,0,2.458-.105h.55l.164-.094h0l.129-.105h0a.7.7,0,0,0,.094-.094h0l.094-.117h0a.655.655,0,0,1,0-.094h0v-.094a.164.164,0,0,0,0-.07.292.292,0,0,0,0-.082.164.164,0,0,1,0-.07s0-.059,0-.094a.292.292,0,0,1,0-.082v-.41ZM91.541,84.647A16.936,16.936,0,0,1,103.6,88.509h-.105A17.721,17.721,0,0,1,91.541,84.647Zm16.047-16.07h0a17,17,0,0,1,.375,17.194,5.442,5.442,0,0,1-.854,1.17,20.506,20.506,0,0,0-16.538-5.712,6.872,6.872,0,0,1,.094-.843h.632a10.019,10.019,0,0,0,3.862-.772,1.3,1.3,0,1,0-1.007-2.341,7.491,7.491,0,0,1-3.394.55,20.122,20.122,0,0,0-.2-2.224,6.367,6.367,0,0,1,4.2-1.334,1.335,1.335,0,1,0,.047-2.669,8.989,8.989,0,0,0-4.9,1.17,4.342,4.342,0,0,0-.258-.644,23.327,23.327,0,0,1,12.547-6.075A5.419,5.419,0,0,1,107.587,68.576Zm-21.9,4.541h0a1.1,1.1,0,0,1,.854.726,16.831,16.831,0,0,1,.363,7.783h0a1.089,1.089,0,0,1-.854.854,28.325,28.325,0,0,1-12.1.129h0a1.17,1.17,0,0,1-.866-.854,16.808,16.808,0,0,1,.386-8.018,1.077,1.077,0,0,1,.843-.726,28.419,28.419,0,0,1,11.377.105ZM57.75,66.1a23.269,23.269,0,0,1,12.535,6.063,4.612,4.612,0,0,0-.211.562.281.281,0,0,0,0,.094,9.059,9.059,0,0,0-4.916-1.17,1.3,1.3,0,1,0,.105,2.6,6.367,6.367,0,0,1,4.214,1.334,19.262,19.262,0,0,0-.211,2.107,7.444,7.444,0,0,1-3.383-.55,1.3,1.3,0,1,0-1.007,2.341,9.949,9.949,0,0,0,3.862.784h.585a3.278,3.278,0,0,0,.105,1.007,20.4,20.4,0,0,0-16.562,5.653,5.641,5.641,0,0,1-.843-1.17h0a16.971,16.971,0,0,1,.386-17.194,5.384,5.384,0,0,1,5.337-2.47ZM56.462,88.533h-.117a17.147,17.147,0,0,1,12.044-3.8,17.779,17.779,0,0,1-11.927,3.792Zm19.745-1.978a31.6,31.6,0,0,0,10.405-.574,47.871,47.871,0,0,0,13.928,21.993,25.059,25.059,0,0,1-6.906-1.8H92.02a2.41,2.41,0,0,0-.339.351h0v.3h0V107a.281.281,0,0,1,0,.094v.515a.258.258,0,0,1,0,.094.176.176,0,0,1,0,.082.281.281,0,0,1,0,.094.105.105,0,0,1,0,.059c.761,2.692,1.545,5.267,2.341,7.76A46.666,46.666,0,0,1,76.208,86.543Z" fill="#1c3766"/>
      </g>
    </g>
  </g>
</svg>
