<svg xmlns="http://www.w3.org/2000/svg" xmlns:xlink="http://www.w3.org/1999/xlink" width="96" height="54" viewBox="0 0 96 54">
  <defs>
    <clipPath id="clip-path">
      <rect id="Rectangle_149001" data-name="Rectangle 149001" width="96" height="54" transform="translate(635 10)" stroke="#707070" stroke-width="1"/>
    </clipPath>
  </defs>
  <g id="Mask_Group_197" data-name="Mask Group 197" transform="translate(-635 -10)" clip-path="url(#clip-path)">
    <g id="logo_vmms" data-name="logo vmms" transform="translate(635 25.001)">
      <g id="Group_6" data-name="Group 6" transform="translate(0 0.001)">
        <path id="Path_2" data-name="Path 2" d="M0,7.109H7.949l5.275,6.7s1.915-2.22,3.83-4.26c1.3-1.37,4.444-4.26,5.275-4.925C24.5,2.849,26.589,1.183,28.29,0h2.384A70.335,70.335,0,0,0,23.16,7.48a69.871,69.871,0,0,0-9.972,16.512Z"/>
        <path id="Path_3" data-name="Path 3" d="M8.141,7.22V8.376H6.3V5.52H24.907L22.92,7.254Z" transform="translate(-2.507 -2.196)"/>
        <path id="Path_4" data-name="Path 4" d="M6.3,21.54l1.841,2.276v6.5h5.383l1.337,1.662H6.3Z" transform="translate(-2.507 -7.987)"/>
        <path id="Path_5" data-name="Path 5" d="M24.18,25.712l-.72,1.662H34.84V9.96L33,11.983V25.712Z" transform="translate(-9.333 -3.38)"/>
        <path id="Path_6" data-name="Path 6" d="M45.36,5.52h5.383l5.417,5.131L61.582,5.52h5.383V26.19H61.582V12.844L56.16,18.049l-5.38-5.131V26.19H45.36Z" transform="translate(-18.338 -2.196)"/>
        <path id="Path_7" data-name="Path 7" d="M85.98,5.52H91.4l5.42,5.131,5.42-5.131h5.347V26.19H102.2V12.844L96.78,18.049,91.4,12.918V26.19H85.98Z" transform="translate(-34.761 -2.196)"/>
        <path id="Path_8" data-name="Path 8" d="M142.432,5.557l-3.069,5.168h-7.08a.94.94,0,0,0-.869.929.865.865,0,0,0,.256.614.832.832,0,0,0,.611.24h5.855a8.22,8.22,0,0,1,4.408,1.56,6.72,6.72,0,0,1,2.529,6.283,7.174,7.174,0,0,1-3.035,4.684c-1.663,1.3-4.516,1.154-6.037,1.154H124.8l2.746-5.131h9.247c.794.037,3.035.186,2.927-1.71-.037-.707-.433-1.71-2.168-1.71-1.373,0-5.059.037-5.059.037a6.378,6.378,0,0,1-5.889-3.532,6,6,0,0,1,2.132-7.508c1.445-.965,2.278-1.117,6.215-1.117C138.2,5.52,142.432,5.557,142.432,5.557Z" transform="translate(-50.441 -2.196)"/>
      </g>
      <path id="Path_9" data-name="Path 9" d="M156.547,0a1.763,1.763,0,0,0-1.807,1.662,1.74,1.74,0,0,0,1.807,1.662,1.763,1.763,0,0,0,1.807-1.662A1.763,1.763,0,0,0,156.547,0Zm0,3A1.38,1.38,0,0,1,155.1,1.662,1.406,1.406,0,0,1,156.547.325a1.383,1.383,0,0,1,1.445,1.337A1.406,1.406,0,0,1,156.547,3Z" transform="translate(-62.353 0.001)"/>
      <path id="Path_10" data-name="Path 10" d="M157.372,2.271a.648.648,0,0,0,.289-.145.493.493,0,0,0,.145-.578c-.109-.325-.54-.289-.54-.289H156.4l-.036,1.77h.289v-.72h.4l.54.72h.4Zm-.686-.217V1.548h.506c.109,0,.325.037.325.253,0,.253-.289.253-.289.253Z" transform="translate(-62.998 -0.5)"/>
    </g>
  </g>
</svg>
